/* XPM */
static char * close_active_xpm[] = {
"17 7 3 1",
" 	c None",
".	c #000000",
"+	c #CC3B5F",
".................",
"+++++++++++++++++",
"+++++++++++++++++",
"+++++++++++++++++",
"+++++++++++++++++",
"+++++++++++++++++",
"................."};
