/* XPM */
static char * maximize_active_xpm[] = {
"17 7 3 1",
" 	c None",
".	c #000000",
"+	c #ED6F00",
".................",
"+++++++++++++++++",
"+++++++++++++++++",
"+++++++++++++++++",
"+++++++++++++++++",
"+++++++++++++++++",
"................."};
