/* XPM */
static char * close_pressed_xpm[] = {
"17 7 3 1",
" 	c None",
".	c #000000",
"+	c #DC4B6F",
".................",
"+++++++++++++++++",
"+++++++++++++++++",
"+++++++++++++++++",
"+++++++++++++++++",
"+++++++++++++++++",
"................."};
