/* XPM */
static char * close_inactive_xpm[] = {
"17 7 3 1",
" 	c None",
".	c #000000",
"+	c #F92672",
".................",
"+++++++++++++++++",
"+++++++++++++++++",
"+++++++++++++++++",
"+++++++++++++++++",
"+++++++++++++++++",
"................."};
