/* XPM */
static char * hide_pressed_xpm[] = {
"17 7 3 1",
" 	c None",
".	c #000000",
"+	c #A6E22E",
".................",
"+++++++++++++++++",
"+++++++++++++++++",
"+++++++++++++++++",
"+++++++++++++++++",
"+++++++++++++++++",
"................."};
