/* XPM */
static char * hide_active_xpm[] = {
"17 7 3 1",
" 	c None",
".	c #000000",
"+	c #A6E22E",
".................",
"+++++++++++++++++",
"+++++++++++++++++",
"+++++++++++++++++",
"+++++++++++++++++",
"+++++++++++++++++",
"................."};
