/* XPM */
static char * maximize_toggled_pressed_xpm[] = {
"17 7 3 1",
" 	c None",
".	c #000000",
"+	c #F4BF75",
".................",
"+++++++++++++++++",
"+++++++++++++++++",
"+++++++++++++++++",
"+++++++++++++++++",
"+++++++++++++++++",
"................."};
