/* XPM */
static char * menu_pressed_xpm[] = {
"17 7 3 1",
" 	c None",
".	c #000000",
"+	c #05C15A",
".................",
"+++++++++++++++++",
"+++++++++++++++++",
"+++++++++++++++++",
"+++++++++++++++++",
"+++++++++++++++++",
"................."};
