/* XPM */
static char * close_inactive_xpm[] = {
"17 7 3 1",
" 	c None",
".	c #353C4A",
"+	c #BF616A",
".................",
"+++++++++++++++++",
"+++++++++++++++++",
"+++++++++++++++++",
"+++++++++++++++++",
"+++++++++++++++++",
"................."};
