/* XPM */
static char * hide_inactive_xpm[] = {
"17 7 3 1",
" 	c None",
".	c #353C4A",
"+	c #EBCB8B",
".................",
"+++++++++++++++++",
"+++++++++++++++++",
"+++++++++++++++++",
"+++++++++++++++++",
"+++++++++++++++++",
"................."};
