/* XPM */
static char * maximize_inactive_xpm[] = {
"17 7 3 1",
" 	c None",
".	c #353C4A",
"+	c #A3BE8C",
".................",
"+++++++++++++++++",
"+++++++++++++++++",
"+++++++++++++++++",
"+++++++++++++++++",
"+++++++++++++++++",
"................."};
